<?xml version="1.0" encoding="utf-8"?>
<!-- Generator: Adobe Illustrator 19.0.0, SVG Export Plug-In . SVG Version: 6.00 Build 0)  -->
<!DOCTYPE svg PUBLIC "-//W3C//DTD SVG 1.1//EN" "http://www.w3.org/Graphics/SVG/1.1/DTD/svg11.dtd">
<svg version="1.1" id="Layer_1" xmlns="http://www.w3.org/2000/svg" xmlns:xlink="http://www.w3.org/1999/xlink" x="0px" y="0px"
	 viewBox="0 0 159.401 150.24" style="enable-background:new 0 0 159.401 150.24;" xml:space="preserve">
<style type="text/css">
	.st0{fill:none;stroke:#000000;stroke-linejoin:round;stroke-miterlimit:10;}
	.st1{fill:none;stroke:#000000;stroke-miterlimit:10;}
</style>
<g id="XMLID_931_">
	<polygon id="XMLID_978_" class="st0" points="135.24,40.156 155.165,89.614 79.681,149.329 4.197,89.614 24.122,40.156 	"/>
	<line id="XMLID_977_" class="st1" x1="4.197" y1="89.614" x2="155.165" y2="89.614"/>
	<line id="XMLID_974_" class="st1" x1="79.681" y1="149.329" x2="79.681" y2="89.614"/>
	<line id="XMLID_955_" class="st1" x1="4.197" y1="89.614" x2="4.197" y2="40.156"/>
	<line id="XMLID_954_" class="st1" x1="4.197" y1="40.156" x2="24.122" y2="40.156"/>
	<line id="XMLID_939_" class="st1" x1="4.197" y1="40.156" x2="18.154" y2="54.114"/>
	<line id="XMLID_938_" class="st1" x1="155.165" y1="89.614" x2="155.165" y2="40.156"/>
	<line id="XMLID_937_" class="st1" x1="155.165" y1="40.156" x2="135.24" y2="40.156"/>
	<line id="XMLID_936_" class="st1" x1="155.165" y1="40.156" x2="141.208" y2="54.114"/>
	<line id="XMLID_3_" class="st1" x1="4.135" y1="0.883" x2="43.65" y2="40.156"/>
	<path id="XMLID_933_" class="st0" d="M4.197,40.156C-3.505,31.734,4.135,0.883,4.135,0.883l75.546,148.446"/>
	<line id="XMLID_2_" class="st1" x1="155.227" y1="0.883" x2="115.712" y2="40.156"/>
	<path id="XMLID_1_" class="st0" d="M155.165,40.156c7.702-8.422,0.061-39.273,0.061-39.273L79.681,149.329"/>
</g>
</svg>
